<?xml version="1.0" encoding="utf-8"?>
<!-- Generator: Adobe Illustrator 17.0.0, SVG Export Plug-In . SVG Version: 6.00 Build 0)  -->
<!DOCTYPE svg PUBLIC "-//W3C//DTD SVG 1.1//EN" "http://www.w3.org/Graphics/SVG/1.1/DTD/svg11.dtd">
<svg version="1.1" id="Layer_1" xmlns="http://www.w3.org/2000/svg" xmlns:xlink="http://www.w3.org/1999/xlink" x="0px" y="0px"
	 width="50.8px" height="50.8px" viewBox="0 0 50.8 50.8" style="enable-background:new 0 0 50.8 50.8;" xml:space="preserve">
<style type="text/css">
	.st0{fill:#EEEEEE;}
</style>
<path class="st0" d="M25.5,50.6c-13.8,0-25-11.2-25-25c0-13.8,11.2-25,25-25s25,11.2,25,25C50.5,39.4,39.3,50.6,25.5,50.6z M25.5,4
	C13.5,4,3.8,13.7,3.8,25.6s9.7,21.7,21.7,21.7c11.9,0,21.7-9.7,21.7-21.7S37.4,4,25.5,4z"/>
<g>
	<g>
		<path class="st0" d="M29.6,37.7l3.5-3.2v-6.8l-3.5,2.2V37.7z M29.1,17.4h6.7l3.6-3.3H28.1l-14.8,8.1v16.3l16.2-9.8v0l3.5-2.2v-3.9
			l-16.2,9.8V24L29.1,17.4z"/>
	</g>
</g>
</svg>
