<?xml version="1.0" encoding="utf-8"?>
<!-- Generator: Adobe Illustrator 17.0.0, SVG Export Plug-In . SVG Version: 6.00 Build 0)  -->
<!DOCTYPE svg PUBLIC "-//W3C//DTD SVG 1.1//EN" "http://www.w3.org/Graphics/SVG/1.1/DTD/svg11.dtd">
<svg version="1.1" id="Layer_1" xmlns="http://www.w3.org/2000/svg" xmlns:xlink="http://www.w3.org/1999/xlink" x="0px" y="0px"
	 width="500px" height="500px" viewBox="0 0 500 500" enable-background="new 0 0 500 500" xml:space="preserve">
<g id="Layer_1_1_" display="none">
	
		<circle display="inline" fill="#FFFFFF" stroke="#000000" stroke-width="59" stroke-miterlimit="10" cx="250" cy="251.4" r="149.1"/>
	<polygon display="inline" points="471.6,278.5 471.6,252 471.6,225.6 401.9,190.9 401.9,252 401.9,313.2 	"/>
	<polygon display="inline" points="28.4,225.6 28.4,252 28.4,278.5 98.1,313.2 98.1,252 98.1,190.9 	"/>
	<polygon display="inline" points="276.5,30.5 250,30.5 223.5,30.5 188.9,100.1 250,100.1 311.1,100.1 	"/>
	<polygon display="inline" points="223.5,473.6 250,473.6 276.5,473.6 311.1,404 250,404 188.9,404 	"/>
	<polygon display="inline" points="387.9,427.4 406.7,408.7 425.4,390 400.7,316.3 357.4,359.5 314.2,402.7 	"/>
	<polygon display="inline" points="112.1,76.6 93.3,95.4 74.6,114.1 99.3,187.8 142.6,144.6 185.8,101.4 	"/>
	<polygon display="inline" points="425.4,114.1 406.7,95.4 387.9,76.6 314.2,101.4 357.4,144.6 400.7,187.8 	"/>
	<polygon display="inline" points="74.6,390 93.3,408.7 112.1,427.4 185.8,402.7 142.6,359.5 99.3,316.3 	"/>
</g>
<g id="Layer_2" opacity="0.03">
	<g>
		<circle fill="none" stroke="#FFFFFF" stroke-width="2" stroke-miterlimit="10" cx="250" cy="251.4" r="149.1"/>
		<path fill="none" stroke="#FFFFFF" stroke-width="2" stroke-miterlimit="10" d="M250,430c-98.5,0-178.6-80.1-178.6-178.6
			S151.5,72.8,250,72.8s178.6,80.1,178.6,178.6S348.5,430,250,430z M250,131.7c-66,0-119.6,53.7-119.6,119.6S184,371,250,371
			s119.6-53.7,119.6-119.6S316,131.7,250,131.7z"/>
	</g>
	<polygon fill="none" stroke="#FFFFFF" stroke-width="2" stroke-miterlimit="10" points="471.6,278.5 471.6,252 471.6,225.6 
		401.9,190.9 401.9,252 401.9,313.2 	"/>
	<polygon fill="none" stroke="#FFFFFF" stroke-width="2" stroke-miterlimit="10" points="28.4,225.6 28.4,252 28.4,278.5 
		98.1,313.2 98.1,252 98.1,190.9 	"/>
	<polygon fill="none" stroke="#FFFFFF" stroke-width="2" stroke-miterlimit="10" points="276.5,30.5 250,30.5 223.5,30.5 
		188.9,100.1 250,100.1 311.1,100.1 	"/>
	<polygon fill="none" stroke="#FFFFFF" stroke-width="2" stroke-miterlimit="10" points="223.5,473.6 250,473.6 276.5,473.6 
		311.1,404 250,404 188.9,404 	"/>
	<polygon fill="none" stroke="#FFFFFF" stroke-width="2" stroke-miterlimit="10" points="387.9,427.4 406.7,408.7 425.4,390 
		400.7,316.3 357.4,359.5 314.2,402.7 	"/>
	<polygon fill="none" stroke="#FFFFFF" stroke-width="2" stroke-miterlimit="10" points="112.1,76.6 93.3,95.4 74.6,114.1 
		99.3,187.8 142.6,144.6 185.8,101.4 	"/>
	<polygon fill="none" stroke="#FFFFFF" stroke-width="2" stroke-miterlimit="10" points="425.4,114.1 406.7,95.4 387.9,76.6 
		314.2,101.4 357.4,144.6 400.7,187.8 	"/>
	<polygon fill="none" stroke="#FFFFFF" stroke-width="2" stroke-miterlimit="10" points="74.6,390 93.3,408.7 112.1,427.4 
		185.8,402.7 142.6,359.5 99.3,316.3 	"/>
</g>
<g id="Layer_3" opacity="0.03">
	<line fill="none" stroke="#FFFFFF" stroke-width="2" stroke-miterlimit="10" x1="28.4" y1="278.5" x2="387.9" y2="76.6"/>
	<line fill="none" stroke="#FFFFFF" stroke-width="2" stroke-miterlimit="10" x1="28.4" y1="225.6" x2="425.4" y2="114.1"/>
	<line fill="none" stroke="#FFFFFF" stroke-width="2" stroke-miterlimit="10" x1="74.6" y1="114.1" x2="471.6" y2="225.6"/>
	<line fill="none" stroke="#FFFFFF" stroke-width="2" stroke-miterlimit="10" x1="112.1" y1="76.6" x2="471.6" y2="278.5"/>
	<line fill="none" stroke="#FFFFFF" stroke-width="2" stroke-miterlimit="10" x1="223.5" y1="30.5" x2="425.4" y2="390"/>
	<line fill="none" stroke="#FFFFFF" stroke-width="2" stroke-miterlimit="10" x1="276.5" y1="30.5" x2="387.9" y2="427.4"/>
	<line fill="none" stroke="#FFFFFF" stroke-width="2" stroke-miterlimit="10" x1="471.6" y1="225.4" x2="112.1" y2="427.3"/>
	<line fill="none" stroke="#FFFFFF" stroke-width="2" stroke-miterlimit="10" x1="471.6" y1="278.4" x2="74.6" y2="389.8"/>
	<line fill="none" stroke="#FFFFFF" stroke-width="2" stroke-miterlimit="10" x1="425.4" y1="389.8" x2="28.4" y2="278.4"/>
	<line fill="none" stroke="#FFFFFF" stroke-width="2" stroke-miterlimit="10" x1="387.9" y1="427.3" x2="28.4" y2="225.4"/>
	<line fill="none" stroke="#FFFFFF" stroke-width="2" stroke-miterlimit="10" x1="276.5" y1="473.4" x2="74.6" y2="114"/>
	<line fill="none" stroke="#FFFFFF" stroke-width="2" stroke-miterlimit="10" x1="223.5" y1="473.4" x2="112.1" y2="76.5"/>
</g>
</svg>
